<?xml version="1.0" standalone="no"?>
<!DOCTYPE svg >
<svg version="1.0" xmlns="http://www.w3.org/2000/svg"
 width="512.000000pt" height="512.000000pt" viewBox="0 0 512.000000 512.000000"
 preserveAspectRatio="xMidYMid meet">

<g transform="translate(0.000000,512.000000) scale(0.100000,-0.100000)"
fill="#FFEAA7" stroke="none">
<path d="M899 5101 c-24 -19 -24 -20 -27 -272 -3 -270 1 -298 44 -318 35 -16
48 -14 78 10 l26 20 0 269 0 269 -26 20 c-33 26 -65 27 -95 2z"/>
<path d="M1614 5110 c-32 -13 -72 -67 -80 -105 -8 -43 7 -132 36 -207 59 -159
219 -289 390 -320 55 -9 61 -13 57 -32 -3 -11 -26 -151 -51 -311 -33 -204 -52
-303 -67 -332 -20 -40 -25 -43 -63 -44 -137 -1 -310 -157 -429 -387 -197 -380
-254 -893 -127 -1142 26 -51 94 -126 131 -145 65 -34 148 -38 220 -10 11 4 22
-10 39 -52 25 -62 97 -190 111 -199 19 -12 7 -24 -23 -24 -41 0 -106 -30 -135
-61 -32 -35 -53 -92 -53 -144 l0 -45 -275 0 -275 0 0 1353 0 1354 -23 21 c-29
27 -67 28 -98 3 l-24 -19 -3 -1355 -2 -1355 -79 -3 c-68 -4 -83 -8 -106 -29
-53 -49 -55 -62 -55 -305 0 -243 2 -256 55 -305 l27 -25 604 -5 604 -5 -98
-170 c-113 -196 -122 -218 -122 -294 0 -69 25 -123 76 -173 82 -78 197 -94
295 -42 60 33 88 67 174 215 l60 104 5 -170 c5 -162 6 -172 32 -216 104 -176
353 -167 451 16 19 35 22 62 27 203 l5 164 86 -148 c52 -89 99 -159 120 -176
134 -107 318 -19 366 175 26 109 12 159 -97 348 -49 87 -90 160 -90 163 0 3
113 6 250 6 l251 0 24 25 c14 13 25 31 25 39 0 28 -22 64 -47 75 -17 8 -402
11 -1358 11 l-1335 0 0 185 0 185 275 0 275 0 0 -48 c0 -108 85 -193 193 -193
32 0 69 7 87 16 30 16 35 16 70 0 47 -21 129 -21 170 0 29 15 35 15 73 0 139
-56 277 31 277 175 l0 50 120 0 120 0 0 -32 c0 -86 57 -176 127 -199 49 -16
110 -13 155 7 35 16 39 16 74 -1 46 -21 123 -21 169 1 34 16 38 16 74 0 72
-33 160 -19 214 32 40 38 56 71 63 136 l7 56 268 0 269 0 0 -185 0 -185 -45 0
c-82 0 -126 -78 -72 -128 22 -21 32 -22 216 -22 213 0 231 4 273 62 23 32 23
38 23 273 0 213 -2 244 -18 268 -30 45 -65 62 -146 67 l-76 5 -3 1762 -2 1762
-26 20 c-43 34 -86 26 -109 -20 -13 -24 -15 -262 -15 -1779 l0 -1750 -269 0
-268 0 -6 55 c-11 108 -77 180 -175 192 l-50 6 46 70 c25 39 58 100 74 136 15
37 33 65 40 63 172 -44 286 11 358 173 54 120 73 276 58 465 -40 515 -331
1019 -603 1047 -74 8 -86 27 -100 166 -6 59 -9 110 -6 112 2 3 62 5 133 5
l130 0 30 30 c29 30 30 32 26 113 -3 63 -10 96 -32 143 -52 114 -175 207 -295
221 -49 6 -51 7 -51 37 0 55 -29 168 -59 231 -40 87 -143 193 -230 239 -123
64 -138 66 -706 65 -280 0 -519 -4 -531 -9z m1127 -168 c99 -40 189 -135 223
-237 11 -31 32 -200 58 -459 l40 -409 -38 -33 c-58 -51 -76 -52 -132 -10 -95
69 -193 66 -285 -10 -37 -31 -45 -30 -98 8 -91 66 -181 67 -273 4 -29 -20 -56
-36 -61 -36 -16 0 -104 65 -105 77 0 6 25 163 55 348 30 185 55 348 55 364 0
48 -30 65 -135 72 -111 9 -186 40 -253 106 -46 46 -96 142 -107 206 l-6 38
503 -3 c497 -3 504 -3 559 -26z m487 -558 c49 -20 100 -70 123 -119 34 -73 31
-75 -75 -75 l-94 0 -6 28 c-3 15 -8 62 -12 105 -7 87 -4 90 64 61z m-795 -723
c95 -65 176 -64 260 1 22 17 49 30 60 30 12 0 46 -16 75 -35 64 -44 121 -54
180 -34 24 8 41 12 39 9 -78 -145 -107 -323 -87 -532 32 -340 161 -672 341
-881 l49 -57 -14 -39 c-20 -58 -70 -152 -108 -204 -64 -89 -93 -116 -132 -122
-20 -3 -50 -13 -67 -21 -27 -13 -33 -13 -76 6 -124 55 -257 -30 -271 -172 l-4
-49 -65 -7 c-36 -3 -88 -3 -116 2 -48 8 -52 11 -55 39 -6 73 -15 99 -48 135
-62 68 -173 89 -240 45 -20 -13 -27 -13 -66 5 -24 11 -55 20 -70 20 -44 0
-151 143 -213 285 l-34 78 51 56 c129 140 232 352 296 607 42 166 56 290 49
447 -5 138 -21 215 -62 305 l-24 52 27 -7 c75 -22 140 -6 221 52 19 14 37 25
40 25 3 0 32 -18 64 -39z m-656 -233 c-6 -172 -27 -292 -82 -455 -67 -200
-187 -399 -287 -475 l-36 -27 -6 31 c-15 76 2 275 36 423 41 180 125 376 213
500 46 65 137 155 156 155 9 0 10 -39 6 -152z m1627 120 c55 -45 145 -170 194
-269 101 -205 152 -409 160 -629 2 -80 3 -154 1 -165 -4 -17 -16 -9 -76 48
-56 52 -79 67 -103 67 -41 0 -70 -31 -70 -75 0 -29 9 -44 59 -94 32 -32 80
-71 105 -86 l46 -27 -20 -39 c-54 -105 -155 -95 -271 27 -91 97 -162 218 -222
379 -114 305 -134 664 -47 835 11 21 23 41 27 43 5 3 9 -52 9 -121 3 -191 46
-409 117 -586 37 -93 66 -117 117 -96 55 23 56 52 6 201 -51 152 -72 245 -87
392 -10 98 -5 227 10 227 3 0 24 -14 45 -32z m-1412 -93 c21 -63 23 -88 22
-245 -1 -196 -16 -289 -78 -475 -142 -422 -406 -656 -512 -453 -20 38 -18 42
19 60 50 24 135 105 197 188 175 237 290 607 290 940 l0 105 20 -25 c10 -14
29 -56 42 -95z m-193 -1819 c8 -9 11 -61 9 -161 -3 -136 -5 -149 -23 -161 -18
-12 -24 -11 -43 2 -21 14 -22 22 -22 163 0 101 4 151 12 159 16 16 53 15 67
-2z m239 2 c8 -8 12 -58 12 -159 0 -141 -1 -149 -22 -163 -19 -13 -25 -14 -43
-2 -18 12 -20 25 -23 159 -2 122 0 148 13 161 19 19 46 21 63 4z m240 0 c8 -8
12 -59 12 -165 0 -150 -1 -154 -22 -162 -15 -6 -30 -5 -43 4 -18 11 -20 25
-23 158 -2 122 0 148 13 161 19 19 46 21 63 4z m631 -2 c8 -9 11 -62 9 -166
-3 -149 -4 -153 -26 -161 -17 -6 -27 -4 -42 11 -18 18 -20 34 -20 159 0 114 3
143 16 155 19 20 48 21 63 2z m245 -8 c12 -17 16 -50 16 -145 0 -67 -4 -133
-9 -146 -13 -33 -47 -41 -72 -16 -17 17 -19 34 -19 152 0 104 3 137 16 155 19
28 49 28 68 0z m238 5 c16 -14 18 -33 18 -155 0 -124 -2 -140 -20 -158 -15
-15 -25 -17 -42 -11 -22 8 -23 12 -26 161 -3 155 2 180 36 180 8 0 24 -7 34
-17z m-2522 -418 l0 -185 -45 0 -45 0 0 185 0 185 45 0 45 0 0 -185z m3480 0
l0 -185 -50 0 -50 0 0 185 0 185 50 0 50 0 0 -185z m-1267 -427 c152 -258 172
-300 171 -353 0 -58 -23 -108 -60 -132 -50 -32 -67 -14 -186 192 -60 105 -122
204 -139 220 -52 53 -150 35 -186 -36 -9 -17 -13 -87 -13 -235 0 -203 -1 -212
-23 -245 -43 -65 -145 -60 -176 7 -7 16 -11 101 -11 232 0 177 -3 212 -18 242
-32 64 -116 86 -177 46 -12 -8 -71 -99 -130 -201 -93 -162 -113 -189 -142
-202 -67 -28 -143 23 -143 95 0 27 29 86 123 249 l122 213 467 0 467 0 54 -92z"/>
<path d="M2475 4521 c-123 -34 -209 -131 -230 -258 -9 -55 17 -152 55 -207 34
-50 106 -101 164 -117 22 -6 68 -9 101 -7 197 12 324 210 259 401 -20 60 -84
132 -146 163 -53 27 -152 39 -203 25z m135 -159 c103 -51 108 -201 8 -262
-110 -67 -252 43 -219 168 25 90 128 136 211 94z"/>
<path d="M2360 3263 c-48 -17 -50 -27 -50 -204 l0 -168 26 -20 c30 -24 43 -26
77 -10 40 18 47 50 47 204 0 135 -1 145 -22 169 -25 26 -54 37 -78 29z"/>
<path d="M2713 3260 c-37 -15 -43 -42 -43 -205 0 -152 1 -156 25 -180 13 -14
36 -25 50 -25 14 0 37 11 50 25 24 23 25 28 25 174 0 161 -7 192 -47 210 -28
13 -30 13 -60 1z"/>
<path d="M2156 2739 l-26 -20 0 -169 0 -169 26 -20 c35 -27 57 -26 91 3 l28
24 0 162 0 162 -28 24 c-34 29 -56 30 -91 3z"/>
<path d="M2515 2735 c-24 -24 -25 -28 -25 -180 0 -91 4 -165 11 -176 25 -48
105 -44 128 7 15 33 15 295 0 327 -11 25 -47 47 -75 47 -8 0 -26 -11 -39 -25z"/>
<path d="M2875 2735 c-24 -24 -25 -28 -25 -183 0 -141 2 -162 19 -183 26 -32
86 -32 112 0 17 21 19 42 19 183 0 155 -1 159 -25 183 -13 14 -36 25 -50 25
-14 0 -37 -11 -50 -25z"/>
<path d="M2336 2229 l-26 -20 0 -163 c0 -188 6 -206 69 -206 67 0 75 20 79
182 4 155 1 179 -28 208 -26 26 -60 25 -94 -1z"/>
<path d="M2695 2225 c-24 -24 -25 -28 -25 -185 0 -147 2 -162 20 -180 33 -33
75 -30 108 6 21 24 22 33 22 180 0 151 -1 156 -25 179 -13 14 -36 25 -50 25
-14 0 -37 -11 -50 -25z"/>
</g>
</svg>
