<?xml version="1.0" standalone="no"?>
<!DOCTYPE svg >
<svg version="1.0" xmlns="http://www.w3.org/2000/svg"
 width="512.000000pt" height="512.000000pt" viewBox="0 0 512.000000 512.000000"
 preserveAspectRatio="xMidYMid meet">

<g transform="translate(0.000000,512.000000) scale(0.100000,-0.100000)"
fill="#FFEAA7" stroke="none">
<path d="M475 5095 c-23 -22 -25 -32 -25 -112 0 -120 15 -235 50 -378 143
-596 546 -1042 1159 -1285 l84 -33 -24 -20 c-30 -24 -121 -70 -171 -86 -20 -7
-74 -16 -120 -21 -71 -7 -85 -11 -105 -35 -46 -53 -26 -101 64 -153 122 -71
248 -111 395 -127 l56 -6 -70 -87 c-98 -122 -198 -275 -267 -411 -97 -190
-143 -319 -225 -626 -101 -379 -244 -791 -406 -1168 -44 -103 -80 -197 -80
-210 0 -60 96 -141 205 -173 48 -14 83 -16 184 -11 96 5 128 3 145 -8 78 -51
287 -90 406 -76 57 7 70 5 111 -15 60 -30 160 -54 229 -54 66 0 167 23 219 49
l38 20 69 -25 c130 -48 303 -41 414 16 35 18 48 19 130 10 146 -15 286 8 384
63 40 22 52 24 134 19 138 -7 247 26 352 109 62 49 70 76 39 126 -21 33 -24
49 -23 133 2 108 43 297 97 440 l32 84 80 28 c44 15 81 27 83 28 1 0 2 -25 2
-55 0 -46 4 -60 25 -80 35 -36 72 -32 144 16 175 117 297 281 353 476 20 67
23 101 23 243 0 149 -3 176 -28 273 -16 60 -42 141 -58 180 -28 69 -29 75 -18
139 14 79 1 165 -36 238 -20 39 -22 53 -15 86 5 21 10 73 10 114 0 177 -73
334 -217 470 -184 175 -291 215 -848 320 -522 98 -774 174 -1055 315 -480 241
-840 637 -1093 1201 -21 47 -35 65 -58 75 -38 15 -75 4 -100 -31 -39 -52 -50
-435 -20 -640 6 -35 8 -66 6 -68 -8 -9 -135 101 -210 180 -127 135 -222 283
-285 443 -17 44 -43 90 -56 103 -33 29 -78 29 -109 -3z m1024 -723 c264 -351
610 -612 1042 -786 245 -98 447 -151 914 -240 432 -83 525 -112 650 -201 155
-110 245 -263 245 -417 l0 -58 -78 0 c-145 0 -258 -45 -342 -137 -48 -53 -90
-140 -90 -188 0 -29 -26 -39 -79 -30 -52 9 -83 33 -190 150 -113 124 -179 180
-256 216 -216 102 -446 37 -533 -149 -23 -48 -27 -71 -27 -142 0 -71 4 -94 26
-141 33 -69 91 -129 161 -166 47 -25 63 -28 148 -28 84 0 101 3 147 28 29 15
67 40 86 57 40 34 92 129 102 183 l7 38 77 -79 c84 -87 135 -117 231 -134 69
-13 68 -5 22 -113 -33 -80 -48 -136 -68 -250 -7 -44 -25 -123 -39 -175 -24
-86 -26 -107 -22 -230 4 -112 9 -150 32 -219 25 -78 53 -122 84 -132 10 -4 7
-23 -13 -87 -60 -190 -79 -284 -80 -392 -1 -58 2 -124 6 -147 l8 -41 -48 -16
c-75 -25 -137 -30 -217 -16 l-76 13 -54 -37 c-29 -21 -75 -44 -101 -52 -55
-16 -237 -19 -302 -4 -38 9 -49 7 -106 -20 -138 -67 -243 -63 -402 14 -134 64
-192 134 -209 251 -9 65 -18 80 -55 94 -16 6 -44 16 -62 23 -105 40 -169 164
-147 285 13 70 -2 98 -72 132 -88 42 -124 119 -100 212 15 59 -2 101 -49 118
-57 19 -101 -14 -121 -92 -29 -118 21 -265 117 -342 l51 -40 5 -82 c10 -146
96 -279 217 -335 45 -20 50 -26 66 -77 19 -63 44 -107 92 -167 18 -22 30 -44
26 -47 -10 -11 -104 -8 -148 4 -22 6 -61 24 -88 41 -54 34 -66 36 -163 18 -95
-18 -201 2 -325 61 l-89 42 -64 -11 c-115 -21 -250 -10 -262 22 -3 7 12 50 32
97 148 343 294 760 419 1199 90 316 129 428 199 576 133 280 318 518 509 651
107 76 122 110 68 164 -35 34 -58 36 -135 9 -93 -32 -213 -44 -308 -31 -45 6
-86 15 -90 19 -4 4 23 23 60 42 46 23 95 61 155 121 77 76 87 91 87 122 0 54
-24 73 -155 117 -160 55 -418 184 -535 267 -209 150 -408 384 -514 606 -44 93
-101 246 -93 253 2 2 18 -17 36 -42 97 -134 279 -285 449 -372 113 -59 157
-65 189 -29 35 39 35 55 -1 136 -42 93 -64 197 -72 339 l-6 107 63 -104 c35
-56 106 -160 158 -229z m1667 -1831 c112 -51 127 -212 28 -288 -69 -52 -167
-40 -228 27 -44 49 -55 109 -31 166 42 101 134 139 231 95z m1190 -64 c23 -20
28 -34 32 -86 2 -34 -1 -89 -7 -121 -12 -59 -11 -62 23 -138 64 -142 88 -242
93 -392 7 -201 -27 -320 -133 -460 l-49 -65 -6 117 c-8 140 -29 215 -73 257
-41 40 -89 49 -152 27 -44 -15 -49 -15 -88 4 -40 18 -68 41 -113 91 -21 23
-22 29 -12 88 5 35 32 122 58 194 32 88 54 168 66 240 9 59 22 122 30 140 32
76 128 126 242 127 51 0 67 -4 89 -23z m-404 -1026 c25 -7 75 -11 111 -9 l65
3 6 -44 c11 -82 9 -88 -39 -117 -52 -30 -161 -69 -221 -79 -40 -6 -42 -5 -54
27 -14 39 -26 234 -16 272 l6 26 49 -33 c27 -19 69 -39 93 -46z"/>
<path d="M2214 2205 c-204 -44 -365 -220 -396 -432 -21 -149 34 -315 142 -423
105 -105 216 -151 366 -151 171 0 317 75 414 213 66 94 92 176 92 293 1 198
-97 361 -271 454 -106 56 -227 72 -347 46z m263 -195 c204 -101 251 -377 90
-539 -63 -65 -127 -93 -219 -99 -131 -8 -233 40 -303 142 -161 237 20 552 305
531 45 -3 84 -14 127 -35z"/>
<path d="M4163 2380 c-33 -13 -43 -42 -43 -123 0 -63 3 -76 23 -94 33 -30 62
-36 95 -19 40 21 55 63 50 137 -4 52 -9 66 -32 86 -28 24 -56 28 -93 13z"/>
</g>
</svg>
