<?xml version="1.0" standalone="no"?>
<!DOCTYPE svg >
<svg version="1.0" xmlns="http://www.w3.org/2000/svg"
 width="512.000000pt" height="512.000000pt" viewBox="0 0 512.000000 512.000000"
 preserveAspectRatio="xMidYMid meet">

<g transform="translate(0.000000,512.000000) scale(0.100000,-0.100000)"
fill="#FFEAA7" stroke="none">
<path d="M3040 4790 c-289 -35 -576 -131 -930 -310 -760 -386 -1170 -842
-1379 -1532 -94 -312 -156 -677 -211 -1253 -30 -310 -62 -455 -142 -645 -89
-209 -188 -382 -313 -546 -72 -94 -79 -121 -40 -159 l24 -25 1849 0 1849 0 23
25 c22 23 23 29 17 142 -7 159 -48 364 -91 464 -5 12 9 20 71 39 105 32 252
107 340 174 40 30 74 52 76 48 9 -16 48 -154 62 -223 24 -109 45 -310 45 -425
0 -92 2 -102 23 -122 41 -39 74 -29 142 41 346 362 579 902 647 1502 16 145
16 522 -1 655 -69 555 -302 997 -656 1251 l-75 53 0 47 c0 174 -108 396 -252
520 -162 139 -342 220 -588 265 -100 19 -383 27 -490 14z m489 -165 c306 -62
544 -219 637 -420 32 -69 54 -159 54 -221 l0 -51 -77 -65 c-162 -137 -371
-370 -508 -566 -27 -39 -53 -71 -56 -72 -4 0 -10 26 -14 58 -10 84 -52 246
-86 332 -105 263 -262 413 -486 464 -137 31 -263 18 -378 -38 -133 -66 -207
-152 -365 -427 -36 -62 -130 -202 -210 -310 -179 -241 -219 -313 -271 -489
-64 -214 -65 -534 -3 -811 19 -88 34 -114 69 -123 31 -8 81 16 90 44 3 11 -3
64 -14 119 -74 354 -43 712 81 930 17 31 93 140 170 243 76 103 169 238 205
300 134 227 158 264 209 315 29 28 79 64 111 79 52 26 68 28 163 29 123 0 179
-16 270 -77 171 -114 289 -399 315 -759 l7 -94 -52 -90 c-240 -414 -402 -844
-455 -1209 -21 -143 -21 -388 -1 -484 26 -120 28 -116 -56 -108 -166 16 -272
43 -392 103 -166 83 -315 226 -420 401 -44 72 -74 97 -108 87 -70 -22 -75 -70
-16 -169 189 -323 513 -532 871 -566 62 -6 135 -8 164 -4 39 5 67 1 115 -15
106 -34 192 -44 329 -38 l126 6 12 -37 c39 -118 65 -237 77 -354 l6 -68 -1706
0 -1707 0 63 93 c76 113 203 361 247 482 75 208 100 333 136 690 56 559 110
874 200 1170 118 388 283 666 551 925 190 184 400 330 689 481 401 209 650
294 975 333 71 9 367 -4 439 -19z m852 -874 c74 -55 197 -182 257 -263 87
-118 183 -313 233 -473 175 -564 110 -1324 -161 -1888 -83 -173 -244 -427
-271 -427 -5 0 -9 24 -9 53 0 128 -53 374 -117 541 -160 421 -502 794 -932
1015 -56 29 -101 54 -101 57 0 3 25 61 56 130 120 265 352 644 540 879 108
135 395 425 422 425 10 0 48 -22 83 -49z m-1098 -1557 c233 -119 485 -321 638
-514 72 -91 189 -277 189 -301 0 -21 -73 -89 -150 -138 -82 -53 -192 -98 -330
-134 -98 -25 -135 -30 -250 -31 -134 -1 -240 14 -259 38 -17 20 -41 134 -52
241 -19 193 19 452 106 723 25 78 48 142 51 142 2 0 28 -12 57 -26z"/>
<path d="M2604 3455 c-214 -68 -350 -280 -315 -494 60 -373 516 -512 771 -235
79 86 129 236 115 343 -26 189 -146 333 -324 387 -56 17 -191 17 -247 -1z
m229 -151 c65 -22 139 -91 167 -156 17 -39 24 -72 24 -123 1 -124 -62 -218
-182 -273 -70 -32 -173 -29 -245 8 -140 70 -202 244 -138 388 28 63 103 134
164 155 56 20 153 21 210 1z"/>
<path d="M2700 3223 c-31 -11 -71 -58 -81 -97 -21 -77 34 -160 115 -173 46 -7
115 26 139 67 38 63 16 153 -46 190 -31 19 -93 25 -127 13z"/>
</g>
</svg>
