<?xml version="1.0" standalone="no"?>
<!DOCTYPE svg >
<svg version="1.0" xmlns="http://www.w3.org/2000/svg"
 width="512.000000pt" height="512.000000pt" viewBox="0 0 512.000000 512.000000"
 preserveAspectRatio="xMidYMid meet">

<g transform="translate(0.000000,512.000000) scale(0.100000,-0.100000)"
fill="#FFEAA7" stroke="none">
<path d="M456 5099 c-135 -47 -230 -153 -256 -287 -5 -26 -31 -84 -58 -129
-168 -280 -157 -658 29 -930 43 -63 157 -181 191 -199 31 -16 70 -10 90 14 7
8 16 53 19 98 3 46 8 86 11 89 3 4 27 -10 52 -29 75 -57 166 -95 287 -120 24
-5 26 -10 38 -112 57 -496 342 -941 749 -1169 l72 -40 0 -172 0 -173 -82 0
c-101 0 -142 -11 -204 -53 -123 -83 -148 -271 -52 -380 47 -52 79 -57 119 -18
36 36 35 57 -7 118 -34 50 -29 103 15 147 l31 31 173 3 c108 2 186 -1 210 -8
73 -22 100 -115 52 -180 -44 -60 -28 -119 36 -135 36 -9 90 39 119 107 52 120
2 265 -114 333 -15 8 -3 20 75 75 51 36 105 73 120 83 26 17 30 17 165 -17
181 -45 314 -72 503 -101 85 -14 155 -26 156 -27 92 -129 1111 -1420 1142
-1448 78 -69 192 -110 303 -110 l49 0 73 -107 c112 -164 225 -238 378 -249 54
-4 71 -2 97 15 42 26 67 75 60 116 -3 18 -217 406 -476 864 -259 457 -471 834
-471 836 0 2 51 3 113 2 129 -2 160 9 197 68 30 49 25 133 -11 171 -13 14
-147 113 -298 220 -201 142 -282 194 -303 194 -39 0 -68 -32 -68 -74 0 -42 2
-44 317 -266 128 -90 232 -165 230 -166 -4 -4 -568 16 -722 26 -254 17 -575
51 -625 66 -9 3 17 21 62 44 202 101 361 259 415 411 10 27 21 49 25 49 4 0
33 -18 64 -40 83 -58 137 -52 158 17 14 44 -168 375 -313 571 -151 203 -473
489 -905 802 -188 136 -192 139 -204 186 -56 208 -248 547 -325 573 -51 18
-97 -16 -97 -71 0 -13 27 -59 60 -103 78 -103 167 -282 214 -428 l37 -115 190
-137 c452 -325 710 -549 883 -765 62 -78 171 -239 165 -244 -2 -2 -114 75
-249 171 -135 96 -256 179 -269 184 -34 14 -77 -5 -89 -39 -6 -15 -13 -53 -16
-84 -16 -155 -143 -335 -321 -453 -170 -112 -379 -181 -615 -200 l-75 -6 -92
55 c-155 91 -277 197 -330 286 -65 110 -72 272 -16 393 42 89 121 168 210 210
l68 32 235 3 c129 1 245 5 258 7 59 14 81 83 39 123 -23 21 -31 22 -263 22
-265 0 -312 -7 -421 -62 -35 -17 -90 -55 -122 -85 -97 -87 -140 -164 -188
-333 -4 -13 -5 -13 -13 0 -20 32 -81 199 -99 275 -21 86 -47 263 -39 270 3 3
39 14 82 25 119 30 209 82 302 175 139 138 201 301 191 495 -9 154 -55 259
-162 365 -72 71 -156 118 -261 145 -93 24 -160 25 -239 5 -134 -35 -252 -155
-280 -284 l-7 -34 -140 139 c-133 133 -139 140 -134 173 8 51 50 106 103 138
l48 28 350 0 c327 0 356 -1 435 -22 120 -30 231 -80 342 -151 52 -34 105 -62
117 -62 28 0 71 43 71 70 0 37 -19 58 -93 109 -150 101 -317 168 -487 196 -71
11 -173 15 -410 15 -290 -1 -320 -2 -374 -21z m675 -449 c270 -83 375 -359
241 -630 -56 -114 -191 -220 -321 -255 -59 -15 -56 -21 -65 100 -12 148 -73
300 -166 416 l-52 64 4 72 c13 196 164 294 359 233z m-600 -385 c-101 -106
-155 -217 -188 -381 l-17 -87 -19 24 c-31 39 -83 149 -108 229 -20 62 -24 97
-23 195 0 132 13 191 66 308 l32 68 152 -152 153 -153 -48 -51z m210 -127 c47
-74 86 -194 97 -302 l8 -78 -39 5 c-67 9 -177 70 -240 135 l-58 58 36 71 c35
71 120 173 143 173 7 0 30 -28 53 -62z m2406 -1316 l195 -137 -6 -38 c-10 -62
-61 -151 -128 -223 -142 -152 -337 -240 -581 -263 -96 -9 -102 -9 -250 29
-150 38 -268 73 -289 86 -6 4 31 19 83 34 236 67 422 177 570 338 70 77 142
193 166 270 12 37 21 51 31 47 8 -3 102 -67 209 -143z m-1217 -649 c36 -13 69
-28 73 -32 6 -6 -93 -83 -160 -124 -10 -6 -13 12 -13 94 0 92 2 101 18 94 9
-4 46 -18 82 -32z m1543 -302 c12 -1 80 -95 211 -294 107 -162 201 -297 211
-300 31 -13 65 -7 85 13 41 41 29 67 -139 323 -88 133 -159 242 -158 243 8 6
292 -16 294 -23 2 -4 215 -381 473 -838 322 -568 466 -831 456 -833 -23 -5
-99 36 -140 75 -21 21 -171 238 -333 483 -162 245 -300 448 -307 453 -49 33
-109 4 -114 -54 -2 -30 23 -72 187 -319 105 -156 189 -286 187 -287 -11 -11
-122 45 -160 80 -40 38 -1002 1266 -1012 1292 -3 8 30 7 118 -2 68 -6 131 -12
141 -12z"/>
<path d="M1022 4497 c-20 -21 -22 -34 -22 -130 0 -123 12 -147 73 -147 55 0
71 28 76 126 1 47 0 96 -3 109 -16 62 -84 85 -124 42z"/>
</g>
</svg>
