<?xml version="1.0" standalone="no"?>
<!DOCTYPE svg >
<svg version="1.0" xmlns="http://www.w3.org/2000/svg"
 width="512.000000pt" height="512.000000pt" viewBox="0 0 512.000000 512.000000"
 preserveAspectRatio="xMidYMid meet">

<g transform="translate(0.000000,512.000000) scale(0.100000,-0.100000)"
fill="#FFEAA7" stroke="none">
<path d="M3315 4933 c-22 -2 -103 -13 -180 -24 -749 -109 -1571 -435 -2031
-804 -334 -268 -653 -695 -847 -1137 -151 -341 -226 -651 -248 -1017 -12 -209
-4 -272 45 -356 52 -88 166 -177 263 -206 36 -10 44 -18 54 -48 65 -203 186
-358 340 -435 39 -20 93 -39 120 -42 44 -6 53 -11 79 -49 106 -154 276 -227
533 -230 l137 -2 53 -55 c130 -137 273 -198 465 -198 98 0 102 -1 174 -39 134
-72 199 -86 393 -85 139 1 183 5 243 21 l72 21 75 -24 c163 -52 335 -57 450
-14 76 29 108 29 220 1 190 -46 406 -36 526 25 27 13 62 24 78 24 52 0 170 29
244 60 184 76 297 237 297 420 0 68 1 72 43 123 63 78 90 147 91 237 1 50 -5
90 -17 121 l-17 45 34 75 c19 41 39 99 46 130 18 80 9 249 -17 323 l-21 59 29
61 c56 120 72 204 73 386 1 233 -28 358 -112 488 -34 51 -35 56 -36 160 -1 90
-6 117 -27 168 l-26 62 24 38 c28 47 68 168 82 248 56 312 -111 785 -375 1065
-213 227 -484 353 -849 396 -116 13 -370 18 -480 8z m535 -188 c423 -71 695
-268 870 -630 105 -215 147 -385 137 -555 -5 -88 -37 -222 -55 -234 -4 -2 -39
11 -77 30 -219 108 -440 41 -549 -165 -60 -115 -80 -218 -80 -416 0 -104 4
-186 12 -211 18 -61 73 -126 165 -195 218 -165 329 -333 403 -607 37 -140 86
-175 164 -117 19 14 38 25 42 25 14 0 9 -144 -7 -197 -8 -28 -33 -78 -55 -111
-22 -33 -40 -69 -40 -81 0 -12 11 -44 25 -71 30 -58 34 -144 9 -195 -8 -18
-38 -54 -65 -79 -27 -25 -49 -51 -49 -58 -1 -7 -2 -58 -3 -113 -2 -91 -5 -105
-33 -155 -56 -99 -168 -157 -344 -179 -47 -6 -99 -20 -128 -35 -109 -55 -275
-59 -457 -10 -153 41 -157 41 -238 3 -69 -33 -77 -34 -187 -33 -102 0 -125 4
-208 32 -110 38 -120 38 -215 11 -101 -29 -298 -37 -390 -15 -73 17 -149 52
-214 99 -42 29 -42 30 -115 19 -189 -28 -352 48 -471 222 -27 40 -52 45 -156
33 -165 -18 -330 16 -424 87 -23 17 -56 56 -74 86 -47 81 -55 86 -131 93 -172
17 -318 160 -377 373 -33 118 -36 122 -125 145 -111 28 -202 102 -225 184 -12
41 -13 79 -5 215 13 241 43 412 105 621 159 531 498 1053 906 1394 438 366
1310 705 2059 800 146 18 466 13 600 -10z m796 -1540 c92 -45 154 -149 154
-258 0 -80 -6 -90 -78 -134 -108 -67 -206 -95 -344 -101 l-118 -4 0 74 c0 165
48 333 114 397 68 66 171 76 272 26z m239 -555 c44 -86 58 -170 59 -340 1
-136 -2 -164 -22 -230 -24 -76 -75 -184 -91 -194 -4 -3 -21 29 -36 72 -73 207
-199 378 -380 516 l-80 61 86 7 c143 10 303 63 399 132 19 14 36 25 37 26 2 0
14 -22 28 -50z"/>
<path d="M3159 3567 c-154 -44 -252 -175 -251 -338 0 -121 74 -237 187 -297
45 -24 61 -27 150 -27 89 0 105 3 150 27 204 108 251 373 97 537 -83 88 -222
129 -333 98z m172 -183 c46 -23 81 -85 81 -142 0 -100 -70 -172 -167 -172 -98
0 -167 72 -167 172 1 48 24 101 57 128 48 40 135 46 196 14z"/>
<path d="M1655 3126 c-18 -18 -25 -39 -30 -92 -16 -142 12 -462 55 -627 139
-544 531 -835 1098 -814 129 5 142 4 142 -11 0 -35 51 -124 99 -176 52 -54
137 -103 196 -113 30 -5 34 -10 45 -50 45 -181 201 -294 429 -311 l83 -7 23
-63 c42 -117 116 -201 204 -230 97 -33 279 14 339 86 21 27 15 80 -13 107 -32
33 -63 31 -135 -5 -80 -40 -128 -40 -174 1 -35 30 -66 97 -80 169 -20 102 -45
120 -158 112 -86 -5 -184 10 -238 38 -68 35 -118 108 -121 176 -4 95 -37 134
-116 134 -51 0 -132 40 -167 81 -36 43 -52 80 -61 144 -10 76 -14 84 -47 101
-27 14 -39 14 -97 2 -107 -21 -348 -16 -453 10 -180 45 -293 108 -406 227
-187 197 -271 465 -277 890 l-3 199 -27 23 c-34 30 -79 30 -110 -1z"/>
<path d="M3781 2438 c-99 -120 -196 -200 -371 -301 -30 -18 -61 -44 -69 -58
-27 -49 14 -119 72 -119 56 0 266 132 378 238 132 124 164 198 105 248 -40 35
-82 32 -115 -8z"/>
</g>
</svg>
