<?xml version="1.0" standalone="no"?>
<!DOCTYPE svg >
<svg version="1.0" xmlns="http://www.w3.org/2000/svg"
 width="512.000000pt" height="512.000000pt" viewBox="0 0 512.000000 512.000000"
 preserveAspectRatio="xMidYMid meet">

<g transform="translate(0.000000,512.000000) scale(0.100000,-0.100000)"
fill="#FFEAA7" stroke="none">
<path d="M2750 5110 c-639 -50 -1068 -240 -1462 -649 -548 -567 -1041 -1539
-1228 -2418 -81 -382 -78 -575 12 -746 42 -80 164 -202 240 -241 32 -15 60
-36 63 -47 11 -35 85 -124 143 -172 31 -27 107 -73 167 -102 92 -45 113 -60
130 -90 48 -90 193 -181 335 -211 54 -11 78 -21 89 -37 72 -107 208 -160 407
-161 l110 -1 50 -44 c99 -87 206 -124 369 -126 91 -2 118 -6 159 -25 111 -51
239 -50 405 2 l74 23 82 -27 c101 -34 230 -46 306 -28 68 16 164 66 190 98 18
23 19 36 13 166 -12 267 39 542 155 831 117 292 386 838 422 856 8 4 53 12
101 18 74 10 210 43 269 66 16 6 16 0 3 -72 -8 -43 -30 -136 -49 -207 -19 -70
-35 -139 -35 -153 0 -36 42 -73 84 -73 46 0 166 90 301 225 397 398 540 879
429 1438 -42 213 -140 399 -255 485 l-46 34 -6 117 c-21 436 -321 844 -792
1079 -170 85 -363 144 -575 177 -126 19 -493 28 -660 15z m526 -171 c562 -54
1035 -340 1234 -744 61 -124 90 -230 97 -361 l6 -102 -39 -12 c-94 -30 -278
-107 -389 -162 -384 -192 -550 -385 -515 -600 11 -73 47 -152 89 -201 23 -25
31 -42 26 -56 -14 -45 -22 -238 -14 -339 4 -59 20 -151 33 -206 l26 -99 -75
-136 c-139 -255 -347 -707 -412 -896 -35 -102 -79 -286 -94 -395 -7 -52 -13
-171 -13 -263 l-1 -168 -49 -14 c-85 -26 -152 -17 -292 36 l-81 31 -64 -27
c-35 -14 -102 -33 -148 -42 -98 -19 -172 -9 -225 30 -46 35 -57 37 -137 26
-144 -20 -275 22 -355 116 -26 29 -55 56 -66 58 -11 3 -57 2 -102 -3 -100 -10
-211 2 -265 29 -40 21 -74 57 -103 109 -12 24 -25 32 -55 37 -129 20 -164 29
-218 55 -72 34 -96 58 -133 130 -26 52 -29 54 -118 90 -158 63 -248 135 -308
246 -33 61 -33 61 -111 96 -62 27 -154 117 -183 179 -57 118 -62 239 -21 484
92 551 334 1193 647 1715 493 823 932 1191 1567 1313 257 50 623 70 861 46z
m1471 -1407 c85 -85 147 -228 178 -406 78 -456 -43 -870 -349 -1200 -31 -33
-58 -57 -61 -54 -3 2 0 29 5 59 37 195 32 345 -15 425 -33 56 -85 100 -262
224 -247 173 -338 254 -386 345 -27 52 -27 118 0 170 59 112 279 263 553 380
66 29 269 104 282 104 4 1 29 -21 55 -47z m-724 -1005 c39 -30 108 -78 152
-107 78 -52 195 -155 195 -171 0 -23 -219 -92 -330 -105 l-57 -6 -18 68 c-18
68 -35 374 -21 374 3 0 39 -24 79 -53z"/>
<path d="M3085 4425 c-230 -42 -421 -209 -491 -429 -74 -235 -17 -476 155
-647 128 -127 276 -189 451 -189 179 0 318 58 446 185 137 135 202 302 191
490 -18 297 -231 537 -527 591 -91 16 -134 16 -225 -1z m185 -165 c143 -23
286 -126 349 -254 153 -311 -73 -675 -420 -676 -216 0 -407 154 -455 368 -63
283 144 549 446 571 8 0 44 -4 80 -9z"/>
<path d="M3060 3989 c-101 -45 -154 -126 -154 -234 0 -80 21 -129 76 -182 162
-155 428 -43 428 181 0 183 -188 309 -350 235z m155 -174 c52 -51 16 -145 -55
-145 -22 0 -41 10 -62 30 -25 26 -29 36 -24 63 13 70 94 100 141 52z"/>
<path d="M879 1764 c-44 -47 -21 -151 50 -222 40 -40 104 -70 177 -83 32 -6
79 -23 104 -39 113 -72 286 -95 413 -57 48 15 60 23 74 52 14 28 14 38 3 65
-7 17 -25 37 -41 45 -25 13 -36 13 -95 -1 -44 -10 -86 -13 -118 -9 -60 8 -145
44 -188 80 -20 17 -42 25 -66 25 -90 0 -156 37 -168 94 -15 75 -95 103 -145
50z"/>
<path d="M1905 995 c-53 -52 -17 -125 92 -183 96 -51 160 -64 291 -62 95 2
131 -2 192 -20 171 -49 326 7 399 145 28 53 27 90 -4 120 -47 48 -112 29 -149
-43 -41 -79 -160 -91 -283 -30 -39 19 -48 20 -94 10 -117 -27 -232 -8 -308 53
-54 43 -100 47 -136 10z"/>
</g>
</svg>
