<svg width="32" height="32" viewBox="0 0 32 32" fill="none" xmlns="http://www.w3.org/2000/svg">
<path d="M9 30H4.8C4.05739 30 3.3452 29.705 2.8201 29.1799C2.295 28.6548 2 27.9426 2 27.2V17.4C2 16.6574 2.295 15.9452 2.8201 15.4201C3.3452 14.895 4.05739 14.6 4.8 14.6H9M18.8 11.8V6.2C18.8 5.08609 18.3575 4.0178 17.5698 3.23015C16.7822 2.4425 15.7139 2 14.6 2L9 14.6V30H24.792C25.4673 30.0076 26.1225 29.771 26.6371 29.3336C27.1516 28.8962 27.4907 28.2877 27.592 27.62L29.524 15.02C29.5849 14.6187 29.5578 14.209 29.4447 13.8192C29.3315 13.4293 29.1349 13.0688 28.8686 12.7625C28.6023 12.4562 28.2725 12.2115 27.9022 12.0453C27.5319 11.8791 27.1299 11.7954 26.724 11.8H18.8Z" stroke="#FFEAA7" stroke-width="3" stroke-linecap="round" stroke-linejoin="round"/>
</svg>
